<mxfile host="app.diagrams.net" modified="2024-02-11T15:16:13.972Z" agent="Mozilla/5.0 (Windows NT 10.0; Win64; x64) AppleWebKit/537.36 (KHTML, like Gecko) Chrome/121.0.0.0 Safari/537.36" version="23.1.2" etag="A1h72hE4EiEC_ZYIQBZk" type="github">
  <diagram name="Page-1" id="OYOZaE1hginS6ekwztz1">
    <mxGraphModel>
      <root>
        <mxCell id="0" />
        <mxCell id="1" parent="0" />
      </root>
    </mxGraphModel>
  </diagram>
</mxfile>
